<?xml version="1.0" encoding="utf-8"?>
<!-- Generator: Adobe Illustrator 25.2.3, SVG Export Plug-In . SVG Version: 6.00 Build 0)  -->
<svg version="1.1" id="Layer_1" xmlns="http://www.w3.org/2000/svg" xmlns:xlink="http://www.w3.org/1999/xlink" x="0px" y="0px"
	 viewBox="0 0 72 72" style="enable-background:new 0 0 72 72;" xml:space="preserve">
<style type="text/css">
	.st0{fill:#A32035;}
	.st1{fill:#FFFFFF;}
	.st2{fill:none;}
</style>
<rect x="-10" y="-10.2" class="st0" width="90" height="90"/>
<g>
	<path class="st1" d="M65.6,38.4c-0.1,0.8-0.2,1.5-0.4,2.3c-0.2,0.7-0.5,1.4-0.8,2.1c-0.3,0.7-0.8,1.4-1.4,2
		c-1.2,1.3-2.6,2.4-4.2,3.1c-1.6,0.7-3.3,1.1-5.1,1.1c-1.8,0-3.5-0.3-5-1c-1.6-0.7-2.9-1.6-4.1-2.8c-1.2-1.2-2.1-2.5-2.8-4.1
		c-0.7-1.6-1-3.2-1-5c0-1.8,0.3-3.5,1-5.1c0.7-1.6,1.6-3,2.8-4.2c1.2-1.2,2.6-2.1,4.2-2.8c1.6-0.7,3.3-1,5.1-1c2.2,0,4.2,0.5,6,1.4
		c1.8,0.9,3.3,2.3,4.7,4l-2,1.9c-1.1-1.5-2.3-2.7-3.7-3.5c-1.4-0.8-3.1-1.3-4.9-1.3c-1.4,0-2.8,0.3-4,0.9c-1.2,0.6-2.3,1.3-3.3,2.3
		c-0.9,1-1.7,2.1-2.2,3.3c-0.5,1.3-0.8,2.6-0.8,4c0,1.3,0.3,2.6,0.8,3.8c0.5,1.2,1.2,2.3,2.2,3.3c0.9,0.9,2,1.7,3.3,2.3
		c1.2,0.6,2.5,0.9,3.9,0.9c1.1,0,2.2-0.2,3.2-0.6c1.1-0.4,2-0.9,2.9-1.6c0.9-0.7,1.5-1.5,2.1-2.5c0.5-1,0.8-2,0.8-3.2l-16.6,0h-0.8
		c-0.2-0.8-0.3-1.6-0.3-2.4c0-0.1,0-0.1,0-0.2l20.7,0C65.6,36.8,65.6,37.6,65.6,38.4"/>
	<path class="st1" d="M40.1,26H26.8v9.9l12.3,0c0,0,0,0.1,0,0.1c0,0.8,0.1,1.7,0.2,2.5l-12.6,0v10.1H24V23.4h16.1V26z"/>
	<polygon class="st1" points="22.5,26 9.2,26 9.2,35.9 22.5,35.9 22.5,38.5 9.2,38.5 9.2,48.6 6.4,48.6 6.4,23.4 22.5,23.4 	"/>
</g>
</svg>
