<?xml version="1.0" standalone="no"?>
<!DOCTYPE svg PUBLIC "-//W3C//DTD SVG 20010904//EN"
 "http://www.w3.org/TR/2001/REC-SVG-20010904/DTD/svg10.dtd">
<svg version="1.0" xmlns="http://www.w3.org/2000/svg"
 width="700.000000pt" height="700.000000pt" viewBox="0 0 700.000000 700.000000"
 preserveAspectRatio="xMidYMid meet">
<metadata>
Created by potrace 1.14, written by Peter Selinger 2001-2017
</metadata>
<g transform="translate(0.000000,700.000000) scale(0.100000,-0.100000)"
fill="#000000" stroke="none">
<path d="M0 3500 l0 -3500 3500 0 3500 0 0 3500 0 3500 -3500 0 -3500 0 0
-3500z m5463 1245 c277 -48 481 -158 695 -373 68 -68 122 -127 120 -131 -2 -3
-45 -47 -97 -96 l-93 -90 -36 45 c-70 88 -208 218 -285 268 -83 54 -195 102
-305 129 -102 26 -342 23 -445 -5 -159 -43 -359 -165 -478 -289 -131 -137
-206 -270 -257 -451 -24 -87 -27 -113 -26 -252 1 -139 3 -165 28 -245 52 -175
127 -306 240 -424 136 -142 315 -252 491 -303 115 -33 333 -33 450 0 102 30
249 99 329 156 177 127 301 329 314 514 l5 72 -846 0 -845 0 -10 63 c-6 34
-13 90 -16 125 l-6 62 1009 0 1008 0 -13 -57 c-8 -32 -14 -87 -14 -123 -1
-239 -97 -514 -237 -675 -116 -133 -254 -238 -406 -310 -188 -89 -350 -120
-581 -112 -184 6 -299 33 -450 105 -149 71 -247 141 -367 261 -194 194 -310
412 -353 660 -18 108 -21 304 -5 417 23 170 103 371 209 530 67 100 222 256
320 321 151 101 338 179 495 207 109 19 351 20 458 1z m-3275 -147 l3 -128
-651 0 -650 0 0 -480 0 -480 650 0 650 0 0 -125 0 -125 -647 -2 -648 -3 -3
-493 -2 -493 -133 3 -132 3 -3 1215 c-1 668 0 1221 3 1228 3 10 165 12 782 10
l778 -3 3 -127z m1712 -3 l0 -125 -645 0 -645 0 0 -480 0 -480 594 0 593 0 7
-87 c4 -49 10 -105 13 -125 l6 -38 -612 0 -611 0 -2 -492 -3 -493 -130 0 -130
0 -3 1223 -2 1222 785 0 785 0 0 -125z"/>
</g>
</svg>
